<svg width="56" height="54" viewBox="0 0 56 54" fill="none" xmlns="http://www.w3.org/2000/svg">
<path d="M54.8718 21.4218L54.7937 21.2221L47.2268 1.47421C47.0729 1.08717 46.8003 0.758831 46.4482 0.53632C46.0958 0.317589 45.6848 0.212241 45.2707 0.2345C44.8566 0.25676 44.4592 0.405554 44.1324 0.660793C43.8091 0.923361 43.5746 1.27915 43.4608 1.67974L38.3516 17.3113H17.6629L12.5537 1.67974C12.4429 1.27697 12.2079 0.919396 11.8821 0.657898C11.5552 0.402659 11.1579 0.253864 10.7438 0.231605C10.3296 0.209346 9.91866 0.314694 9.56631 0.533424C9.21497 0.756834 8.94261 1.08488 8.78763 1.47132L1.20631 21.2105L1.13105 21.4103C0.0417655 24.2564 -0.0926886 27.3795 0.747957 30.3087C1.5886 33.2379 3.35877 35.8144 5.79157 37.6497L5.81763 37.67L5.8871 37.7192L17.4139 46.3513L23.1166 50.6674L26.5903 53.29C26.9966 53.5985 27.4927 53.7655 28.0029 53.7655C28.5131 53.7655 29.0092 53.5985 29.4155 53.29L32.8892 50.6674L38.5918 46.3513L50.1882 37.6671L50.2171 37.644C52.6444 35.8083 54.4105 33.2344 55.2499 30.3092C56.0892 27.3839 55.9566 24.2653 54.8718 21.4218Z" fill="#E24329"/>
<path d="M54.8718 21.4218L54.7937 21.2221C51.1066 21.9789 47.6322 23.5407 44.6187 25.7958L28 38.3618C33.6592 42.6432 38.586 46.3629 38.586 46.3629L50.1824 37.6787L50.2113 37.6555C52.6421 35.8199 54.4109 33.2444 55.2514 30.3167C56.092 27.3889 55.9587 24.2673 54.8718 21.4218Z" fill="#FC6D26"/>
<path d="M17.4139 46.3629L23.1166 50.6789L26.5903 53.3016C26.9966 53.6101 27.4927 53.7771 28.0029 53.7771C28.5131 53.7771 29.0092 53.6101 29.4155 53.3016L32.8892 50.6789L38.5918 46.3629C38.5918 46.3629 33.6592 42.6316 28 38.3618C22.3408 42.6316 17.4139 46.3629 17.4139 46.3629Z" fill="#FCA326"/>
<path d="M11.3784 25.7958C8.36729 23.536 4.89363 21.9702 1.20631 21.2105L1.13105 21.4103C0.0417655 24.2564 -0.0926886 27.3795 0.747957 30.3087C1.5886 33.2379 3.35877 35.8144 5.79157 37.6497L5.81763 37.67L5.8871 37.7192L17.4139 46.3513C17.4139 46.3513 22.335 42.6316 28 38.3503L11.3784 25.7958Z" fill="#FC6D26"/>
</svg>
